# xmcd CD database file
#
# Track frame offsets:
#	150
#	15531
#	34425
#	55483
#	78341
#	95344
#	112311
#	130221
#	156090
#	173009
#	190069
#	202769
#	231320
#	250725
#	270712
#	283988
#	307259
#	327515
#
# Disc length: 4676 seconds
#
# Revision: 1
# Processed by: cddbd v1.5.2PL0 Copyright (c) Steve Scherf et al.
# Submitted via: CDex 1.51
#
DISCID=07124212
DTITLE=אמנים שונים - אם כבר לבד...
DYEAR=1900
DGENRE=ישראלי
TTITLE0=אביב גפן - לילות לבנים
TTITLE1=ג'נגו - לילה
TTITLE2=תמר גלעדי - האהבה מתה
TTITLE3=חמי רדנר - בואי ניפרד
TTITLE4=ג'וזי כץ - אני סולחת
TTITLE5=שלמה ארצי - לפעמים
TTITLE6=שרון חזיז - הולכת ממך
TTITLE7=יעל לוי - (לא בוכה (יש בזה טעם
TTITLE8=לאה שבת - ירח בשמיים
TTITLE9=נימרוד והבודדים - בורח
TTITLE10=איגי וקסמן - אין לי מה לומר לך
TTITLE11=מאור כהן - הכי יפה בעולם
TTITLE12=יוסי בבליקי - יש לך מקום
TTITLE13=שרון ליפשיץ - זאת שיודעת
TTITLE14=קרן הכט - לנצח
TTITLE15=החשמליות - לונדון
TTITLE16=דני צוקרמן - השירים הכי טובים
TTITLE17=החברים של נטאשה - אם לבד
EXTD=
EXTT0=
EXTT1=
EXTT2=
EXTT3=
EXTT4=
EXTT5=
EXTT6=
EXTT7=
EXTT8=
EXTT9=
EXTT10=
EXTT11=
EXTT12=
EXTT13=
EXTT14=
EXTT15=
EXTT16=
EXTT17=
PLAYORDER=
